<svg xmlns="http://www.w3.org/2000/svg" viewBox="0 0 180 180" fill="none">
  <defs>
    <linearGradient id="logoGradient" x1="0%" y1="0%" x2="100%" y2="100%">
      <stop offset="0%" style="stop-color:#6366f1"/>
      <stop offset="100%" style="stop-color:#a855f7"/>
    </linearGradient>
  </defs>
  <rect width="180" height="180" rx="40" fill="url(#logoGradient)"/>
  <path d="M135 85.5C135 95.5 126 100 90 100C54 100 45 95.5 45 85.5M105 50V40C105 35 101 30 96 30H84C79 30 75 35 75 40V50M90 70V70.1M50 140H130C136.627 140 142 134.627 142 128V62C142 55.3726 136.627 50 130 50H50C43.3726 50 38 55.3726 38 62V128C38 134.627 43.3726 140 50 140Z" stroke="white" stroke-width="8" stroke-linecap="round" stroke-linejoin="round"/>
</svg>
